<svg id="Layer_1" data-name="Layer 1" xmlns="http://www.w3.org/2000/svg" xmlns:xlink="http://www.w3.org/1999/xlink" viewBox="0 0 35.38 35.38"><defs><style>.cls-1{fill:url(#linear-gradient);}.cls-2{fill:url(#linear-gradient-2);}.cls-3{fill:url(#linear-gradient-3);}</style><linearGradient id="linear-gradient" x1="291.16" y1="395.69" x2="323.25" y2="426.4" gradientUnits="userSpaceOnUse"><stop offset="0" stop-color="#ffe088"/><stop offset="0.21" stop-color="#fab744"/><stop offset="0.38" stop-color="#ea5578"/><stop offset="0.52" stop-color="#e93e8f"/><stop offset="0.74" stop-color="#7c4997"/><stop offset="1" stop-color="#4f53a0"/></linearGradient><linearGradient id="linear-gradient-2" x1="282.1" y1="405.15" x2="314.19" y2="435.86" xlink:href="#linear-gradient"/><linearGradient id="linear-gradient-3" x1="282.03" y1="405.22" x2="314.12" y2="435.93" xlink:href="#linear-gradient"/></defs><path class="cls-1" d="M307.37,409.13a2.08,2.08,0,1,0,2.07,2.07A2.08,2.08,0,0,0,307.37,409.13Z" transform="translate(-280.31 -402.81)"/><path class="cls-2" d="M298.15,411.79a8.71,8.71,0,1,0,8.71,8.71A8.73,8.73,0,0,0,298.15,411.79Zm0,14.29a5.58,5.58,0,1,1,5.58-5.58A5.59,5.59,0,0,1,298.15,426.08Z" transform="translate(-280.31 -402.81)"/><path class="cls-3" d="M305.06,438.19H290.94a10.64,10.64,0,0,1-10.63-10.63V413.44a10.64,10.64,0,0,1,10.63-10.63h14.12a10.64,10.64,0,0,1,10.63,10.63v14.12A10.64,10.64,0,0,1,305.06,438.19Zm-14.12-32.05a7.3,7.3,0,0,0-7.3,7.3v14.12a7.3,7.3,0,0,0,7.3,7.3h14.12a7.3,7.3,0,0,0,7.3-7.3V413.44a7.3,7.3,0,0,0-7.3-7.3Z" transform="translate(-280.31 -402.81)"/></svg>