<svg id="Layer_1" data-name="Layer 1" xmlns="http://www.w3.org/2000/svg" viewBox="0 0 42.99 35.38"><defs><style>.cls-1{fill:#00b1e3;}</style></defs><path class="cls-1" d="M319.35,406.39a17.87,17.87,0,0,1-4.35,1.24c.7-.12,1.73-1.38,2.14-1.9a7.86,7.86,0,0,0,1.44-2.63c0-.07.07-.17,0-.22a.24.24,0,0,0-.23,0,22.46,22.46,0,0,1-5.15,2,.34.34,0,0,1-.36-.1,3.93,3.93,0,0,0-.45-.46,9.44,9.44,0,0,0-2.5-1.53,8.63,8.63,0,0,0-3.83-.61,9.22,9.22,0,0,0-3.63,1,9.32,9.32,0,0,0-2.93,2.4,8.89,8.89,0,0,0-1.75,3.5,9.41,9.41,0,0,0-.09,3.7c0,.21,0,.24-.18.21-7.08-1.05-13-3.59-17.71-9-.21-.24-.32-.24-.49,0-2.09,3.13-1.07,8.15,1.53,10.61a14.37,14.37,0,0,0,1.09,1,9,9,0,0,1-3.42-1c-.21-.13-.31-.05-.33.18a5.12,5.12,0,0,0,.06,1,9.08,9.08,0,0,0,5.6,7.24,5.48,5.48,0,0,0,1.13.35,10.25,10.25,0,0,1-3.35.1c-.24-.05-.34.07-.24.31,1.47,4,4.65,5.21,7,5.9.32.05.64.05,1,.13,0,0,0,0-.06.05-.79,1.21-3.53,2.11-4.81,2.55a17.27,17.27,0,0,1-7.3.94c-.4-.06-.48-.06-.59,0s0,.16.12.26c.49.33,1,.62,1.52.9a23.35,23.35,0,0,0,4.88,1.95c8.78,2.43,18.66.65,25.25-5.9,5.17-5.14,7-12.23,7-19.33,0-.28.32-.43.52-.58a17.13,17.13,0,0,0,3.44-3.57,1.08,1.08,0,0,0,.22-.68v0C319.52,406.28,319.52,406.31,319.35,406.39Z" transform="translate(-276.54 -402.15)"/></svg>